<svg width="587" height="83" viewBox="0 0 587 83" fill="none" xmlns="http://www.w3.org/2000/svg">
<path d="M0 35.5713C0 34.5231 0.417477 33.5178 1.16059 32.7766C1.9037 32.0354 2.91158 31.619 3.9625 31.619H63.4C64.4509 31.619 65.4588 32.0354 66.2019 32.7766C66.945 33.5178 67.3625 34.5231 67.3625 35.5713C67.3625 36.6196 66.945 37.6249 66.2019 38.3661C65.4588 39.1073 64.4509 39.5237 63.4 39.5237H3.9625C2.91158 39.5237 1.9037 39.1073 1.16059 38.3661C0.417477 37.6249 0 36.6196 0 35.5713ZM3.9625 7.90474H91.1375C92.1884 7.90474 93.1963 7.48833 93.9394 6.74712C94.6825 6.0059 95.1 5.0006 95.1 3.95237C95.1 2.90414 94.6825 1.89884 93.9394 1.15762C93.1963 0.41641 92.1884 0 91.1375 0H3.9625C2.91158 0 1.9037 0.41641 1.16059 1.15762C0.417477 1.89884 0 2.90414 0 3.95237C0 5.0006 0.417477 6.0059 1.16059 6.74712C1.9037 7.48833 2.91158 7.90474 3.9625 7.90474ZM104.164 29.8093L84.3512 23.8807C83.7595 23.7036 83.1345 23.667 82.5261 23.7737C81.9177 23.8805 81.3427 24.1276 80.8471 24.4954C80.3515 24.8633 79.949 25.3416 79.6717 25.8922C79.3944 26.4428 79.25 27.0504 79.25 27.6666V53.5077C76.2289 51.7687 72.717 51.0727 69.2589 51.5276C65.8008 51.9824 62.5898 53.5628 60.124 56.0235C57.6582 58.4842 56.0753 61.6877 55.6209 65.1372C55.1665 68.5866 55.866 72.0893 57.6109 75.1018C59.3557 78.1143 62.0485 80.4683 65.2714 81.7988C68.4943 83.1292 72.0673 83.3617 75.4362 82.4602C78.8051 81.5586 81.7816 79.5735 83.904 76.8126C86.0265 74.0517 87.1763 70.6694 87.175 67.1903V32.9786L101.886 37.3805C102.385 37.5316 102.909 37.583 103.428 37.5318C103.947 37.4805 104.451 37.3275 104.91 37.0817C105.37 36.8359 105.776 36.502 106.106 36.0992C106.436 35.6964 106.683 35.2326 106.833 34.7345C106.983 34.2363 107.033 33.7135 106.979 33.1961C106.926 32.6786 106.771 32.1768 106.523 31.7192C106.275 31.2616 105.939 30.8574 105.534 30.5297C105.129 30.2019 104.664 29.9571 104.164 29.8093ZM39.625 63.2379H3.9625C2.91158 63.2379 1.9037 63.6543 1.16059 64.3955C0.417477 65.1368 0 66.1421 0 67.1903C0 68.2385 0.417477 69.2438 1.16059 69.985C1.9037 70.7263 2.91158 71.1427 3.9625 71.1427H39.625C40.6759 71.1427 41.6838 70.7263 42.4269 69.985C43.17 69.2438 43.5875 68.2385 43.5875 67.1903C43.5875 66.1421 43.17 65.1368 42.4269 64.3955C41.6838 63.6543 40.6759 63.2379 39.625 63.2379Z" fill="#615344"/>
<path d="M124.176 48.008H139.472V56.264H115.92V21.064H124.176V48.008ZM155.472 14.984H163.28V67.592H155.472V40.52H150.16L150.288 67.592H142.16V14.984H150.16V32.392H155.472V14.984ZM227.966 14.984H235.326V67.592H227.966V40.52H222.398L222.526 67.592H214.846V14.984H222.398V32.392H227.966V14.984ZM212.03 24.52V17.8H183.358V24.52H193.278C193.32 25.16 193.342 26.0987 193.342 27.336C193.384 28.5733 193.32 29.96 193.15 31.496C193.022 33.032 192.766 34.6533 192.382 36.36C192.04 38.0667 191.486 39.688 190.718 41.224C189.992 42.76 189.032 44.1467 187.838 45.384C186.686 46.6213 185.235 47.5387 183.486 48.136V55.432C185.576 55.176 187.56 54.5787 189.438 53.64C191.016 52.872 192.595 51.72 194.174 50.184C195.752 48.6053 196.926 46.4933 197.694 43.848C198.078 45.1707 198.568 46.3653 199.166 47.432C199.763 48.456 200.424 49.3733 201.15 50.184C201.918 50.952 202.707 51.6347 203.518 52.232C204.328 52.7867 205.139 53.256 205.95 53.64C207.827 54.5787 209.811 55.176 211.902 55.432V48.136C210.152 47.5387 208.68 46.6213 207.486 45.384C206.334 44.1467 205.374 42.76 204.606 41.224C203.838 39.688 203.262 38.0667 202.878 36.36C202.494 34.6533 202.216 33.032 202.046 31.496C201.918 29.96 201.854 28.5733 201.854 27.336C201.854 26.0987 201.875 25.16 201.918 24.52H212.03ZM283.202 49.416C284.354 49.416 285.421 49.5867 286.402 49.928C287.426 50.2693 288.322 50.76 289.09 51.4C289.858 51.9973 290.455 52.7227 290.882 53.576C291.309 54.3867 291.522 55.304 291.522 56.328V61.448C291.522 62.344 291.309 63.1973 290.882 64.008C290.455 64.8187 289.879 65.5227 289.154 66.12C288.429 66.76 287.575 67.272 286.594 67.656C285.613 68.04 284.567 68.232 283.458 68.232H260.866C259.885 68.232 258.903 68.04 257.922 67.656C256.941 67.3147 256.045 66.8453 255.234 66.248C254.466 65.6507 253.826 64.9467 253.314 64.136C252.845 63.3253 252.61 62.472 252.61 61.576V56.456C252.61 55.2613 252.845 54.2373 253.314 53.384C253.826 52.488 254.487 51.7627 255.298 51.208C256.109 50.6107 257.047 50.1627 258.114 49.864C259.223 49.5653 260.354 49.416 261.506 49.416H283.202ZM291.33 14.28V45.832H284.29V34.056H278.978V45.832H271.874V14.28H278.978V28.04H284.29V14.28H291.33ZM259.394 17.032C259.437 18.1413 259.693 19.4427 260.162 20.936C260.674 22.4293 261.293 23.9867 262.018 25.608C262.743 27.1867 263.533 28.7867 264.386 30.408C265.282 32.0293 266.135 33.5227 266.946 34.888C267.799 36.2533 268.567 37.448 269.25 38.472C269.975 39.496 270.509 40.2213 270.85 40.648H262.338C261.101 38.9413 259.863 36.9787 258.626 34.76C257.389 32.4987 256.322 30.28 255.426 28.104C254.53 30.2373 253.506 32.3707 252.354 34.504C251.202 36.6373 249.901 38.6853 248.45 40.648H239.17C241.09 38.5573 242.775 36.4027 244.226 34.184C245.677 31.9653 246.914 29.8107 247.938 27.72C248.962 25.5867 249.773 23.6027 250.37 21.768C250.967 19.9333 251.373 18.3547 251.586 17.032H259.394ZM264.066 56.072C262.829 56.072 261.954 56.2427 261.442 56.584C260.973 56.9253 260.738 57.48 260.738 58.248V60.104C260.738 60.5733 260.845 60.936 261.058 61.192C261.271 61.448 261.527 61.6187 261.826 61.704C262.167 61.832 262.53 61.896 262.914 61.896C263.341 61.9387 263.767 61.96 264.194 61.96H280.578C281.346 61.96 282.114 61.7893 282.882 61.448C283.65 61.1493 284.034 60.7013 284.034 60.104V58.12C284.034 57.5227 283.735 57.032 283.138 56.648C282.541 56.264 281.687 56.072 280.578 56.072H264.066ZM324.99 37.768H345.598V44.872H295.358V37.768H316.67V33.416H302.078V14.408H338.622V33.416H324.99V37.768ZM301.182 49.48H339.966V55.56C339.923 57.1387 339.752 58.632 339.454 60.04C339.198 61.448 338.899 62.6853 338.558 63.752C338.174 64.9893 337.747 66.1413 337.278 67.208H329.406C330.131 65.8 330.686 64.456 331.069 63.176C331.454 61.9387 331.731 60.8507 331.902 59.912C332.072 58.8027 332.158 57.7787 332.158 56.84H301.182V49.48ZM331.582 26.824V21.064H309.246V26.824H331.582ZM355.244 22.472H385.196V19.528H355.244V14.28H394.156V28.488H363.5V31.88H394.156V37.896H378.604V40.392H398.828V47.304H349.42V40.392H370.412V37.896H355.244V22.472ZM394.028 50.376V56.328C394.028 57.9067 393.879 59.4 393.58 60.808C393.324 62.216 393.025 63.4747 392.684 64.584C392.3 65.864 391.873 67.0587 391.404 68.168H383.596C384.236 66.76 384.727 65.416 385.068 64.136C385.452 62.856 385.729 61.7253 385.9 60.744C386.071 59.6347 386.177 58.568 386.22 57.544H355.18V50.376H394.028ZM413.486 56.776C412.334 56.776 411.118 56.6053 409.838 56.264C408.601 55.9227 407.449 55.3467 406.382 54.536C405.315 53.6827 404.419 52.5733 403.694 51.208C403.011 49.8 402.67 48.0293 402.67 45.896V29.128C402.67 27.4213 402.947 25.864 403.502 24.456C404.057 23.048 404.803 21.832 405.742 20.808C406.723 19.784 407.833 18.9733 409.07 18.376C410.35 17.7787 411.673 17.48 413.038 17.48L417.07 17.416C418.521 17.416 419.907 17.6933 421.23 18.248C422.553 18.76 423.726 19.528 424.75 20.552C425.774 21.5333 426.585 22.728 427.182 24.136C427.779 25.5013 428.078 27.0373 428.078 28.744V45.512C428.078 47.176 427.758 48.6907 427.118 50.056C426.521 51.4213 425.731 52.5947 424.75 53.576C423.769 54.5573 422.681 55.3253 421.486 55.88C420.334 56.4347 419.182 56.712 418.03 56.712L413.486 56.776ZM435.566 14.984L443.63 15.048V68.232H435.566V41.224H430.19V32.2H435.566V14.984ZM456.302 14.984V68.232H448.494V15.048L456.302 14.984ZM416.174 49.928C417.795 49.8427 418.905 49.288 419.502 48.264C420.142 47.1973 420.462 46.024 420.462 44.744V30.216C420.462 28.808 420.014 27.592 419.118 26.568C418.222 25.544 417.113 25.032 415.79 25.032H414.382C413.102 25.032 412.078 25.5867 411.31 26.696C410.585 27.7627 410.222 29.0213 410.222 30.472V44.616C410.222 46.2373 410.649 47.56 411.502 48.584C412.398 49.608 413.657 50.0773 415.278 49.992L416.174 49.928ZM496.452 15.304H505.156V20.232H521.668V27.144H508.612C509.295 27.9547 510.02 28.68 510.788 29.32C511.556 29.96 512.409 30.5573 513.348 31.112C514.287 31.6667 515.353 32.1787 516.548 32.648C517.743 33.1173 519.151 33.5653 520.772 33.992V39.688C516.847 39.3467 513.241 38.4507 509.956 37C506.713 35.5493 503.855 33.3093 501.38 30.28C500.612 31.6453 499.332 32.8827 497.54 33.992C495.791 35.1013 493.913 36.0827 491.908 36.936C489.903 37.7893 487.919 38.4933 485.956 39.048C484.036 39.56 482.521 39.9013 481.412 40.072V33.928C483.332 33.4587 485.38 32.7333 487.556 31.752C489.732 30.728 491.865 29.192 493.956 27.144H481.22V20.232H496.452V15.304ZM526.02 42.696V50.376H505.412V68.104H496.964V50.376H476.42V42.696H526.02ZM556.226 20.04V27.08C556.226 29.3413 555.863 31.5813 555.138 33.8C554.455 35.976 553.516 38.1093 552.322 40.2C551.17 42.2907 549.847 44.296 548.354 46.216C546.903 48.0933 545.41 49.8427 543.874 51.464C540.247 55.3467 536.13 58.9733 531.522 62.344V52.104C533.74 50.312 535.81 48.3493 537.73 46.216C539.65 44.0827 541.314 41.9493 542.722 39.816C544.172 37.64 545.303 35.528 546.114 33.48C546.967 31.432 547.436 29.5973 547.522 27.976H529.858V20.04H556.226ZM579.778 32.328V40.584H571.778V67.592H563.394V15.048H571.778V32.328H579.778Z" fill="#615344"/>
</svg>
