<svg width="12" height="12" viewBox="0 0 12 12" fill="none" xmlns="http://www.w3.org/2000/svg">
<path d="M0 6C-1.17411e-08 5.21207 0.155195 4.43185 0.456723 3.7039C0.758251 2.97595 1.20021 2.31451 1.75736 1.75736C2.31451 1.20021 2.97595 0.758251 3.7039 0.456723C4.43185 0.155195 5.21207 0 6 0C6.78793 0 7.56815 0.155195 8.2961 0.456723C9.02405 0.758251 9.68549 1.20021 10.2426 1.75736C10.7998 2.31451 11.2417 2.97595 11.5433 3.7039C11.8448 4.43185 12 5.21207 12 6C12 7.5913 11.3679 9.11742 10.2426 10.2426C9.11742 11.3679 7.5913 12 6 12C4.4087 12 2.88258 11.3679 1.75736 10.2426C0.632141 9.11742 2.37122e-08 7.5913 0 6V6ZM6 3C5.86739 3 5.74021 3.05268 5.64645 3.14645C5.55268 3.24021 5.5 3.36739 5.5 3.5V5.5H3.5C3.36739 5.5 3.24021 5.55268 3.14645 5.64645C3.05268 5.74021 3 5.86739 3 6C3 6.13261 3.05268 6.25979 3.14645 6.35355C3.24021 6.44732 3.36739 6.5 3.5 6.5H5.5V8.5C5.5 8.63261 5.55268 8.75979 5.64645 8.85355C5.74021 8.94732 5.86739 9 6 9C6.13261 9 6.25979 8.94732 6.35355 8.85355C6.44732 8.75979 6.5 8.63261 6.5 8.5V6.5H8.5C8.63261 6.5 8.75979 6.44732 8.85355 6.35355C8.94732 6.25979 9 6.13261 9 6C9 5.86739 8.94732 5.74021 8.85355 5.64645C8.75979 5.55268 8.63261 5.5 8.5 5.5H6.5V3.5C6.5 3.36739 6.44732 3.24021 6.35355 3.14645C6.25979 3.05268 6.13261 3 6 3Z" fill="#613A2E"/>
</svg>
