<svg width="30" height="36" viewBox="0 0 30 36" fill="none" xmlns="http://www.w3.org/2000/svg">
<path d="M14.75 4.36506e-09C16.3678 -6.04202e-05 17.9226 0.627215 19.0875 1.74992C20.2523 2.87262 20.9365 4.40328 20.996 6.02L21 6.251L27.75 6.25C28.2015 6.2502 28.6355 6.42491 28.9612 6.73761C29.2869 7.05032 29.4791 7.4768 29.4977 7.92794C29.5163 8.37907 29.3598 8.81993 29.061 9.15837C28.7621 9.49682 28.344 9.70664 27.894 9.744L27.75 9.75H26.583L24.956 31.32C24.8753 32.3887 24.3938 33.3875 23.6079 34.1163C22.822 34.8451 21.7898 35.25 20.718 35.25H8.782C7.71021 35.25 6.67799 34.8451 5.89211 34.1163C5.10622 33.3875 4.6247 32.3887 4.544 31.32L2.916 9.75H1.75C1.31065 9.74996 0.88739 9.58467 0.564292 9.28695C0.241194 8.98924 0.0419006 8.58088 0.00599957 8.143L0 8C3.70668e-05 7.56065 0.165331 7.13739 0.463048 6.81429C0.760765 6.49119 1.16912 6.2919 1.607 6.256L1.75 6.25H8.5C8.5 2.952 11.055 0.25 14.294 0.0159998L14.521 0.00400019L14.75 4.36506e-09ZM18.5 13C18.1905 12.9999 17.892 13.1145 17.6622 13.3218C17.4324 13.529 17.2877 13.8142 17.256 14.122L17.25 14.25V26.25L17.256 26.378C17.2864 26.6869 17.4305 26.9734 17.6605 27.1818C17.8904 27.3902 18.1897 27.5057 18.5 27.5057C18.8103 27.5057 19.1096 27.3902 19.3395 27.1818C19.5695 26.9734 19.7136 26.6869 19.744 26.378L19.75 26.25V14.25L19.744 14.122C19.7123 13.8142 19.5676 13.529 19.3378 13.3218C19.108 13.1145 18.8095 12.9999 18.5 13V13ZM11 13C10.6905 12.9999 10.392 13.1145 10.1622 13.3218C9.93244 13.529 9.78769 13.8142 9.756 14.122L9.75 14.25V26.25L9.756 26.378C9.78637 26.6869 9.93055 26.9734 10.1605 27.1818C10.3904 27.3902 10.6897 27.5057 11 27.5057C11.3103 27.5057 11.6096 27.3902 11.8395 27.1818C12.0695 26.9734 12.2136 26.6869 12.244 26.378L12.25 26.25V14.25L12.244 14.122C12.2123 13.8142 12.0676 13.529 11.8378 13.3218C11.608 13.1145 11.3095 12.9999 11 13V13ZM14.918 3.505L14.75 3.5C14.0497 3.49997 13.3758 3.76709 12.8657 4.24689C12.3556 4.72669 12.0478 5.38302 12.005 6.082L12 6.251L17.5 6.25C17.5 5.54971 17.2329 4.87579 16.7531 4.3657C16.2733 3.85561 15.617 3.54778 14.918 3.505V3.505Z" fill="#613A2E"/>
</svg>
