<svg width="17" height="20" viewBox="0 0 17 20" fill="none" xmlns="http://www.w3.org/2000/svg">
<path d="M15.0042 17.9422H1.0042C0.738986 17.9422 0.484633 18.0476 0.297096 18.2351C0.10956 18.4227 0.00420295 18.677 0.00420295 18.9422C0.00420295 19.2075 0.10956 19.4618 0.297096 19.6493C0.484633 19.8369 0.738986 19.9422 1.0042 19.9422H15.0042C15.2694 19.9422 15.5238 19.8369 15.7113 19.6493C15.8988 19.4618 16.0042 19.2075 16.0042 18.9422C16.0042 18.677 15.8988 18.4227 15.7113 18.2351C15.5238 18.0476 15.2694 17.9422 15.0042 17.9422ZM1.0042 15.9422H1.0942L5.2642 15.5622C5.721 15.5167 6.14824 15.3155 6.4742 14.9922L15.4742 5.99224C15.8235 5.62321 16.0123 5.13075 15.9992 4.62278C15.9861 4.1148 15.7721 3.63275 15.4042 3.28224L12.6642 0.542241C12.3066 0.206337 11.838 0.0135995 11.3475 0.000692758C10.8571 -0.012214 10.379 0.15561 10.0042 0.472241L1.0042 9.47224C0.680969 9.79821 0.479707 10.2254 0.434203 10.6822L0.00420295 14.8522C-0.00926809 14.9987 0.00973728 15.1463 0.0598642 15.2846C0.109991 15.4229 0.190005 15.5484 0.294203 15.6522C0.387643 15.7449 0.498459 15.8182 0.620297 15.868C0.742134 15.9178 0.872596 15.943 1.0042 15.9422ZM11.2742 1.94224L14.0042 4.67224L12.0042 6.62224L9.3242 3.94224L11.2742 1.94224Z" fill="#613A2E"/>
</svg>
