<svg width="175" height="47" viewBox="0 0 175 47" fill="none" xmlns="http://www.w3.org/2000/svg">
<path d="M138 23.5C138 24.1233 138.244 24.721 138.677 25.1617C139.111 25.6024 139.699 25.85 140.312 25.85H157.864L152.546 31.2315C152.329 31.45 152.157 31.7099 152.039 31.9962C151.922 32.2826 151.862 32.5898 151.862 32.9C151.862 33.2102 151.922 33.5174 152.039 33.8038C152.157 34.0901 152.329 34.35 152.546 34.5685C152.761 34.7888 153.016 34.9636 153.298 35.0829C153.58 35.2022 153.882 35.2636 154.188 35.2636C154.493 35.2636 154.795 35.2022 155.077 35.0829C155.359 34.9636 155.614 34.7888 155.829 34.5685L165.079 25.1685C165.29 24.945 165.455 24.6815 165.565 24.393C165.796 23.8209 165.796 23.1791 165.565 22.607C165.455 22.3185 165.29 22.055 165.079 21.8315L155.829 12.4315C155.614 12.2124 155.358 12.0386 155.076 11.92C154.794 11.8014 154.492 11.7404 154.188 11.7404C153.883 11.7404 153.581 11.8014 153.299 11.92C153.017 12.0386 152.761 12.2124 152.546 12.4315C152.33 12.6506 152.159 12.9107 152.042 13.197C151.926 13.4833 151.866 13.7901 151.866 14.1C151.866 14.4099 151.926 14.7167 152.042 15.003C152.159 15.2893 152.33 15.5494 152.546 15.7685L157.864 21.15H140.312C139.699 21.15 139.111 21.3976 138.677 21.8383C138.244 22.279 138 22.8767 138 23.5V23.5ZM168.062 0H144.938C143.098 0 141.333 0.742766 140.032 2.0649C138.731 3.38703 138 5.18022 138 7.05V14.1C138 14.7233 138.244 15.321 138.677 15.7617C139.111 16.2024 139.699 16.45 140.312 16.45C140.926 16.45 141.514 16.2024 141.948 15.7617C142.381 15.321 142.625 14.7233 142.625 14.1V7.05C142.625 6.42674 142.869 5.82901 143.302 5.3883C143.736 4.94759 144.324 4.7 144.938 4.7H168.062C168.676 4.7 169.264 4.94759 169.698 5.3883C170.131 5.82901 170.375 6.42674 170.375 7.05V39.95C170.375 40.5733 170.131 41.171 169.698 41.6117C169.264 42.0524 168.676 42.3 168.062 42.3H144.938C144.324 42.3 143.736 42.0524 143.302 41.6117C142.869 41.171 142.625 40.5733 142.625 39.95V32.9C142.625 32.2767 142.381 31.679 141.948 31.2383C141.514 30.7976 140.926 30.55 140.312 30.55C139.699 30.55 139.111 30.7976 138.677 31.2383C138.244 31.679 138 32.2767 138 32.9V39.95C138 41.8198 138.731 43.613 140.032 44.9351C141.333 46.2572 143.098 47 144.938 47H168.062C169.902 47 171.667 46.2572 172.968 44.9351C174.269 43.613 175 41.8198 175 39.95V7.05C175 5.18022 174.269 3.38703 172.968 2.0649C171.667 0.742766 169.902 0 168.062 0Z" fill="#615344"/>
<path d="M16.11 16.05V12.6H2.46V24.57H8.13V28.32H1.2V31.86H18.87V36.39H23.04V11.16H18.87V28.32H11.82V24.57H16.38V21.42H6.3V16.05H16.11ZM39.9267 21.06V19.44H46.6467V16.59H33.8367V14.13H46.6467V11.1H29.6067V19.44H36.0867V21.06H26.3367V24.27H49.4367V21.06H39.9267ZM28.7367 36.39H47.1867V33.57H32.7267V32.31H47.1867V25.77H28.8567V28.23H42.9567V29.49H28.8567V36.36L28.7367 36.39ZM60.225 30.54C62.595 30.54 65.295 28.5 65.295 25.11V18.18C65.295 14.46 62.895 12.54 59.625 12.54H57.915C53.595 12.54 52.125 15 52.125 18.15V25.44C52.125 29.31 54.885 30.54 57.285 30.54H60.225ZM71.895 19.26V11.13H68.025V36.12H71.895V23.13H75.255V19.26H71.895ZM58.305 27.45C55.905 27.45 55.755 25.62 55.755 24.66V18.45C55.755 17.13 56.505 15.72 58.305 15.72H59.235C61.035 15.72 61.695 17.43 61.695 18.75V24.81C61.695 25.98 60.705 27.45 59.235 27.45H58.305ZM77.0496 13.8V17.52H85.3296C85.1796 20.58 81.9996 25.44 77.8296 28.83V33.63C79.9896 32.04 81.9096 30.36 83.6196 28.53C86.4996 25.5 89.4096 21.3 89.4096 17.1V13.8H77.0496ZM96.6996 19.56V11.46H92.7696V36.09H96.6996V23.43H100.45V19.56H96.6996ZM102.245 13.38V17.22H110.945C110.465 19.68 107.825 24.06 103.655 27.45V32.46C105.665 30.93 107.525 29.31 109.175 27.57C111.965 24.6 114.845 20.58 115.235 16.35V13.38H102.245ZM122.285 11.43H118.325V36.36H122.285V11.43Z" fill="#615344"/>
</svg>
