<svg width="24" height="24" viewBox="0 0 24 24" fill="none" xmlns="http://www.w3.org/2000/svg">
<path d="M5.65405 13.6903L4.92306 16.4192L2.25135 16.4757C1.45289 14.9947 1 13.3003 1 11.4998C1 9.7586 1.42345 8.11666 2.17403 6.6709H2.17461L4.55319 7.10698L5.59515 9.47128C5.37707 10.1071 5.2582 10.7896 5.2582 11.4998C5.25829 12.2705 5.3979 13.009 5.65405 13.6903Z" fill="#FBBB00"/>
<path d="M21.8165 9.53809C21.9371 10.1733 22 10.8292 22 11.4996C22 12.2514 21.921 12.9846 21.7704 13.6919C21.2593 16.0989 19.9237 18.2006 18.0735 19.6879L18.0729 19.6873L15.077 19.5345L14.6529 16.8875C15.8806 16.1675 16.8401 15.0408 17.3455 13.6919H11.7308V9.53809H17.4274H21.8165Z" fill="#518EF8"/>
<path d="M18.0729 19.6875L18.0734 19.6881C16.274 21.1344 13.9882 21.9998 11.5 21.9998C7.50133 21.9998 4.0248 19.7648 2.25133 16.4758L5.65403 13.6904C6.54074 16.057 8.82363 17.7416 11.5 17.7416C12.6504 17.7416 13.7281 17.4306 14.6529 16.8877L18.0729 19.6875Z" fill="#28B446"/>
<path d="M18.2021 3.4173L14.8006 6.2021C13.8435 5.60384 12.7121 5.25824 11.5 5.25824C8.76305 5.25824 6.43746 7.02015 5.59517 9.47153L2.17459 6.67115H2.17401C3.92152 3.30192 7.4419 1 11.5 1C14.0477 1 16.3836 1.90751 18.2021 3.4173Z" fill="#F14336"/>
</svg>
