<svg width="50" height="50" viewBox="0 0 50 50" fill="none" xmlns="http://www.w3.org/2000/svg">
<path fill-rule="evenodd" clip-rule="evenodd" d="M25 47.4999C37.4262 47.4999 47.5 37.4262 47.5 25C47.5 12.5737 37.4262 2.5 25 2.5C12.5738 2.5 2.5 12.5737 2.5 25C2.5 37.4262 12.5738 47.4999 25 47.4999ZM25 49.9999C38.8075 49.9999 50 38.8074 50 25C50 11.1925 38.8075 0 25 0C11.1925 0 0 11.1925 0 25C0 38.8074 11.1925 49.9999 25 49.9999Z" fill="black"/>
<path d="M10 39.5372C10 38.246 10.965 37.1547 12.25 37.0122C21.8938 35.9447 28.15 36.041 37.7725 37.036C38.253 37.0864 38.7084 37.2757 39.0831 37.5808C39.4578 37.8858 39.7356 38.2933 39.8825 38.7536C40.0294 39.2139 40.039 39.707 39.9103 40.1727C39.7815 40.6384 39.52 41.0565 39.1575 41.376C27.8013 51.2747 21.3113 51.1384 10.8 41.386C10.2875 40.911 10 40.236 10 39.5385V39.5372Z" fill="black"/>
<path fill-rule="evenodd" clip-rule="evenodd" d="M37.6438 38.2791C28.0975 37.2916 21.9313 37.1991 12.3863 38.2553C11.7438 38.3266 11.25 38.8753 11.25 39.5391C11.25 39.8966 11.3988 40.2353 11.65 40.4703C16.86 45.3028 20.8075 47.4866 24.6663 47.5003C28.5388 47.5141 32.6988 45.3478 38.3363 40.4353C38.5154 40.2759 38.6443 40.0679 38.7074 39.8366C38.7705 39.6053 38.765 39.3606 38.6917 39.1324C38.6183 38.9041 38.4802 38.702 38.2942 38.5508C38.1082 38.3995 37.8822 38.3056 37.6438 38.2803V38.2791ZM12.1125 35.7703C21.8575 34.6916 28.205 34.7891 37.9025 35.7928C38.6254 35.8683 39.3106 36.1529 39.8742 36.6117C40.4378 37.0706 40.8554 37.6839 41.0759 38.3764C41.2964 39.069 41.3101 39.8108 41.1155 40.5111C40.9208 41.2113 40.5262 41.8396 39.98 42.3191C34.2613 47.3041 29.4988 50.0191 24.6588 50.0003C19.805 49.9828 15.2525 47.2216 9.95126 42.3028C9.5717 41.9493 9.26912 41.5213 9.06244 41.0455C8.85575 40.5698 8.74939 40.0565 8.75001 39.5378C8.74818 38.6059 9.09026 37.706 9.71071 37.0106C10.3312 36.3152 11.1864 35.8731 12.1125 35.7691V35.7703Z" fill="black"/>
<path d="M35 20C35 22.6521 33.9464 25.1957 32.0711 27.071C30.1957 28.9464 27.6522 30 25 30C22.3478 30 19.8043 28.9464 17.9289 27.071C16.0536 25.1957 15 22.6521 15 20C15 17.3478 16.0536 14.8043 17.9289 12.9289C19.8043 11.0536 22.3478 10 25 10C27.6522 10 30.1957 11.0536 32.0711 12.9289C33.9464 14.8043 35 17.3478 35 20V20Z" fill="black"/>
<path fill-rule="evenodd" clip-rule="evenodd" d="M25 27.5C26.9891 27.5 28.8968 26.7098 30.3033 25.3033C31.7098 23.8968 32.5 21.9891 32.5 20C32.5 18.0109 31.7098 16.1032 30.3033 14.6967C28.8968 13.2902 26.9891 12.5 25 12.5C23.0109 12.5 21.1032 13.2902 19.6967 14.6967C18.2902 16.1032 17.5 18.0109 17.5 20C17.5 21.9891 18.2902 23.8968 19.6967 25.3033C21.1032 26.7098 23.0109 27.5 25 27.5V27.5ZM25 30C27.6522 30 30.1957 28.9464 32.0711 27.071C33.9464 25.1957 35 22.6521 35 20C35 17.3478 33.9464 14.8043 32.0711 12.9289C30.1957 11.0536 27.6522 10 25 10C22.3478 10 19.8043 11.0536 17.9289 12.9289C16.0536 14.8043 15 17.3478 15 20C15 22.6521 16.0536 25.1957 17.9289 27.071C19.8043 28.9464 22.3478 30 25 30V30Z" fill="black"/>
</svg>
