<svg width="27" height="24" viewBox="0 0 27 24" fill="none" xmlns="http://www.w3.org/2000/svg">
<path d="M24.0723 2.92773C23.4614 2.31659 22.7361 1.83178 21.9378 1.50101C21.1396 1.17025 20.2839 1 19.4199 1C18.5558 1 17.7001 1.17025 16.9019 1.50101C16.1036 1.83178 15.3783 2.31659 14.7674 2.92773L13.4997 4.19549L12.2319 2.92773C10.998 1.69384 9.3245 1.00064 7.57951 1.00064C5.83452 1.00064 4.16099 1.69384 2.92709 2.92773C1.6932 4.16163 1 5.83515 1 7.58015C1 9.32514 1.6932 10.9987 2.92709 12.2326L4.19485 13.5003L13.4997 22.8052L22.8045 13.5003L24.0723 12.2326C24.6834 11.6217 25.1682 10.8964 25.499 10.0981C25.8298 9.29986 26 8.44424 26 7.58015C26 6.71606 25.8298 5.86043 25.499 5.06216C25.1682 4.26388 24.6834 3.53859 24.0723 2.92773V2.92773Z" fill="#D44E24" stroke="#D44E24" stroke-width="1.5" stroke-linecap="round" stroke-linejoin="round"/>
</svg>
