<svg width="24" height="22" viewBox="0 0 24 22" fill="none" xmlns="http://www.w3.org/2000/svg">
<path d="M23.7935 4.76551C23.6552 4.22416 23.4417 3.70486 23.1593 3.22275C22.888 2.72123 22.5411 2.26448 22.1308 1.86855C21.5359 1.27568 20.8315 0.804101 20.0566 0.480069C18.497 -0.160023 16.748 -0.160023 15.1884 0.480069C14.456 0.790058 13.7832 1.22509 13.1999 1.7657L13.1142 1.86855L12 2.98277L10.8858 1.86855L10.8001 1.7657C10.2168 1.22509 9.54398 0.790058 8.81162 0.480069C7.25199 -0.160023 5.50299 -0.160023 3.94336 0.480069C3.16852 0.804101 2.46407 1.27568 1.8692 1.86855C1.05559 2.66021 0.479641 3.66367 0.206451 4.76551C0.0611141 5.32506 -0.00807697 5.90165 0.000749228 6.47969C0.000749228 7.02309 0.0693164 7.56477 0.206451 8.09102C0.350157 8.62249 0.55735 9.13472 0.823555 9.61664C1.11105 10.112 1.46263 10.5674 1.8692 10.9708L12 21.1016L22.1308 10.9708C22.537 10.5714 22.885 10.1137 23.1593 9.61664C23.716 8.66545 24.0062 7.58182 23.9992 6.47969C24.0081 5.90165 23.9389 5.32505 23.7935 4.76551V4.76551ZM22.0794 7.55962C21.874 8.34286 21.4661 9.05823 20.8966 9.63378L11.9657 18.5475L3.03484 9.63378C2.74382 9.34068 2.49045 9.01246 2.28061 8.6567C2.08314 8.30474 1.9278 7.93076 1.81778 7.54248C1.72994 7.15425 1.68397 6.75773 1.68064 6.3597C1.68297 5.95029 1.72894 5.54229 1.81778 5.14263C1.92457 4.75324 2.08008 4.37888 2.28061 4.02842C2.48631 3.66844 2.74001 3.34275 3.03484 3.05134C3.47521 2.61687 3.99255 2.2681 4.56046 2.02283C5.70487 1.56501 6.98154 1.56501 8.12595 2.02283C8.69163 2.25767 9.20246 2.60222 9.63443 3.03419L11.9657 5.38262L14.297 3.03419C14.7287 2.60146 15.2412 2.25782 15.8055 2.02283C16.9499 1.56501 18.2266 1.56501 19.371 2.02283C19.9384 2.26796 20.456 2.61765 20.8966 3.05134C21.1948 3.33418 21.4451 3.6633 21.6337 4.02842C22.0307 4.7286 22.2376 5.52051 22.2336 6.32542C22.257 6.7396 22.2223 7.15501 22.1308 7.55962H22.0794V7.55962Z" fill="black"/>
</svg>
