<svg width="80" height="80" viewBox="0 0 80 80" fill="none" xmlns="http://www.w3.org/2000/svg">
<path d="M40.5 18L32.0175 23.4855H24.75V28.1343L20.1825 31.1327C18.8775 31.9463 18 33.4106 18 35.1074V58.3512C18 59.5842 18.4741 60.7666 19.318 61.6384C20.1619 62.5102 21.3065 63 22.5 63H58.5C60.9975 63 63 60.9313 63 58.3512V35.1074C63 33.4106 62.1225 31.9463 60.8175 31.1327L56.25 28.1343V23.4855H48.9825L40.5 18ZM29.25 28.1343H51.75V39.4773L40.5 46.7293L29.25 39.4773V28.1343ZM31.5 30.4587V33.9452H49.5V30.4587H31.5ZM24.75 33.6663V36.5718L22.5 35.1074L24.75 33.6663ZM56.25 33.6663L58.5 35.1074L56.25 36.5718V33.6663ZM31.5 36.2696V39.7562H49.5V36.2696H31.5Z" fill="#613A2E"/>
</svg>
