<svg width="36" height="36" viewBox="0 0 36 36" fill="none" xmlns="http://www.w3.org/2000/svg">
<path d="M25.612 11.388C25.1722 10.9479 24.65 10.5989 24.0752 10.3607C23.5005 10.1226 22.8844 10 22.2623 10C21.6401 10 21.0241 10.1226 20.4493 10.3607C19.8746 10.5989 19.3524 10.9479 18.9126 11.388L17.9998 12.3008L17.087 11.388C16.1986 10.4996 14.9936 10.0005 13.7372 10.0005C12.4809 10.0005 11.2759 10.4996 10.3875 11.388C9.4991 12.2764 9 13.4813 9 14.7377C9 15.9941 9.4991 17.199 10.3875 18.0874L11.3003 19.0002L17.9998 25.6997L24.6992 19.0002L25.612 18.0874C26.0521 17.6476 26.4011 17.1254 26.6393 16.5507C26.8774 15.9759 27 15.3599 27 14.7377C27 14.1156 26.8774 13.4995 26.6393 12.9248C26.4011 12.35 26.0521 11.8278 25.612 11.388V11.388Z" stroke="#613A2E" stroke-width="1.5" stroke-linecap="round" stroke-linejoin="round"/>
</svg>
