<svg width="30" height="28" viewBox="0 0 30 28" fill="none" xmlns="http://www.w3.org/2000/svg">
<path d="M2.60215 0.365909L28.1871 12.6035C28.4454 12.7271 28.6635 12.9212 28.8161 13.1635C28.9687 13.4058 29.0497 13.6863 29.0497 13.9726C29.0497 14.2589 28.9687 14.5394 28.8161 14.7817C28.6635 15.0239 28.4454 15.2181 28.1871 15.3417L2.60215 27.5793C2.33976 27.705 2.04675 27.7527 1.75801 27.7167C1.46928 27.6806 1.19699 27.5623 0.973584 27.3759C0.750176 27.1895 0.585062 26.9428 0.497908 26.6651C0.410755 26.3875 0.405234 26.0907 0.482005 25.81L3.04172 16.4261C3.07305 16.311 3.13755 16.2078 3.22716 16.1292C3.31677 16.0506 3.42754 16.0001 3.54565 15.9841L15.9435 14.2998C15.9952 14.2926 16.0441 14.2721 16.0856 14.2404C16.1271 14.2087 16.1597 14.1669 16.1803 14.1189L16.2021 14.0424C16.2117 13.9746 16.1981 13.9056 16.1635 13.8465C16.1289 13.7874 16.0753 13.7418 16.0115 13.717L15.9447 13.6988L3.55901 12.0158C3.44111 11.9995 3.33061 11.9489 3.24123 11.8703C3.15185 11.7917 3.08754 11.6886 3.05629 11.5738L0.482005 2.13512C0.405234 1.85446 0.410755 1.55764 0.497908 1.28002C0.585062 1.00241 0.750176 0.755691 0.973584 0.569262C1.19699 0.382832 1.46928 0.264547 1.75801 0.228494C2.04675 0.192441 2.33976 0.24014 2.60215 0.365909V0.365909Z" fill="#613A2E"/>
</svg>
