<svg width="80" height="80" viewBox="0 0 80 80" fill="none" xmlns="http://www.w3.org/2000/svg">
<path d="M20.7503 62.003C20.7503 62.003 17 62.003 17 58.2528C17 54.5025 20.7503 43.2518 39.5015 43.2518C58.2528 43.2518 62.003 54.5025 62.003 58.2528C62.003 62.003 58.2528 62.003 58.2528 62.003H20.7503ZM39.5015 39.5015C42.4854 39.5015 45.3471 38.3162 47.457 36.2062C49.5669 34.0963 50.7523 31.2346 50.7523 28.2508C50.7523 25.2669 49.5669 22.4052 47.457 20.2953C45.3471 18.1853 42.4854 17 39.5015 17C36.5176 17 33.656 18.1853 31.546 20.2953C29.4361 22.4052 28.2508 25.2669 28.2508 28.2508C28.2508 31.2346 29.4361 34.0963 31.546 36.2062C33.656 38.3162 36.5176 39.5015 39.5015 39.5015V39.5015Z" fill="#613A2E"/>
</svg>
