<svg width="31" height="34" viewBox="0 0 31 34" fill="none" xmlns="http://www.w3.org/2000/svg">
<path d="M18.9968 30.5135L15.5 34L12.0032 30.5135C5.1305 28.9309 0 22.7862 0 15.4545C0 6.92364 6.944 0 15.5 0C24.056 0 31 6.92364 31 15.4545C31 22.7862 25.8695 28.9309 18.9968 30.5135ZM6.23565 20.7338C8.51105 24.1184 11.9272 26.2727 15.748 26.2727C19.5672 26.2727 22.9849 24.1199 25.2588 20.7338C22.6792 18.33 19.2788 16.9951 15.748 17C12.2166 16.9947 8.81564 18.3296 6.23565 20.7338ZM15.5 13.9091C16.7333 13.9091 17.916 13.4206 18.788 12.5511C19.6601 11.6816 20.15 10.5024 20.15 9.27273C20.15 8.04309 19.6601 6.86381 18.788 5.99432C17.916 5.12484 16.7333 4.63636 15.5 4.63636C14.2667 4.63636 13.084 5.12484 12.212 5.99432C11.3399 6.86381 10.85 8.04309 10.85 9.27273C10.85 10.5024 11.3399 11.6816 12.212 12.5511C13.084 13.4206 14.2667 13.9091 15.5 13.9091Z" fill="#613A2E"/>
</svg>
