<svg width="30" height="30" viewBox="0 0 30 30" fill="none" xmlns="http://www.w3.org/2000/svg">
<path d="M29.9878 7.6568C29.9878 6.73427 29.91 5.81549 29.6897 4.91734C29.2941 3.28135 28.3613 2.03163 26.9654 1.11378C26.2473 0.64502 25.457 0.357199 24.617 0.205319C23.972 0.0924568 23.3191 0.0303894 22.6643 0.0196881C22.6155 0.0150005 22.5621 0.00468765 22.5077 0H7.47914C7.28884 0.0150005 7.09853 0.0243758 6.90822 0.0337511C5.97544 0.0871902 5.04828 0.184693 4.16893 0.536267C2.4993 1.19535 1.29277 2.34757 0.589669 4.00794C0.345927 4.56952 0.223118 5.16485 0.135933 5.77049C0.0628105 6.25895 0.0234368 6.75209 0.00937471 7.24523C0.00937471 7.2846 0 7.32304 0 7.36242V22.6413L0.0290616 23.1692C0.0928096 24.1901 0.224055 25.2008 0.654355 26.1383C1.46527 27.9112 2.82741 29.0775 4.69767 29.6391C5.21984 29.8003 5.76732 29.8734 6.31387 29.9222C7.00759 29.9906 7.70039 30 8.39411 30H22.1824C22.8368 30 23.4911 29.9559 24.1455 29.8734C25.1758 29.7412 26.1423 29.4384 27.017 28.8628C28.0523 28.192 28.8686 27.2329 29.3653 26.1036C29.5997 25.5758 29.7319 25.0152 29.8294 24.448C29.9709 23.6032 30 22.7482 30 21.8941C29.9953 17.1474 30 12.4016 29.9953 7.65493L29.9878 7.6568ZM21.9603 12.6416V19.7809C21.9603 20.3031 21.8871 20.816 21.6528 21.2894C21.2918 22.0263 20.7059 22.4904 19.9194 22.7154C19.4837 22.8403 19.0345 22.9123 18.5816 22.9301C18.0121 22.9638 17.45 22.7868 17.0025 22.4329C16.5549 22.0791 16.2531 21.573 16.1545 21.011C16.0641 20.5053 16.1422 19.984 16.3768 19.5271C16.6114 19.0701 16.9894 18.7028 17.4529 18.4815C17.8532 18.2865 18.2882 18.1693 18.7222 18.0812C19.1957 17.979 19.6691 17.8862 20.1378 17.7784C20.4847 17.7006 20.7087 17.4905 20.7772 17.1333C20.7969 17.0555 20.8015 16.9721 20.8015 16.8943V10.0878C20.7998 10.0101 20.7885 9.93299 20.7678 9.85812C20.719 9.6678 20.5822 9.5553 20.3872 9.56467C20.1866 9.57405 19.9916 9.60874 19.7966 9.64811C18.8441 9.83375 17.8926 10.0241 16.9448 10.2191L12.3212 11.1519C12.3015 11.1566 12.2771 11.1669 12.2574 11.1669C11.9106 11.2644 11.7887 11.421 11.7737 11.7819C11.769 11.8354 11.7737 11.8897 11.7737 11.9432C11.769 15.1955 11.7737 18.4478 11.769 21.6991C11.769 22.2269 11.7099 22.7445 11.5009 23.232C11.154 24.0326 10.539 24.5361 9.70938 24.7751C9.27077 24.9028 8.81787 24.975 8.3613 24.9898C7.16509 25.0339 6.16856 24.2379 5.96419 23.0613C5.78794 22.046 6.25199 20.9519 7.40414 20.4635C7.85319 20.2778 8.31724 20.1756 8.79066 20.0781L9.865 19.8587C10.3431 19.7566 10.5925 19.4537 10.6169 18.9653V18.7796V7.67555C10.6169 7.51898 10.6365 7.36335 10.6703 7.21147C10.7584 6.85521 11.0125 6.6499 11.3537 6.56646C11.6715 6.48302 11.9987 6.42489 12.3202 6.35645C13.238 6.17082 14.1511 5.98519 15.0689 5.80424L17.9057 5.22766C18.7457 5.06172 19.58 4.89109 20.42 4.72515C20.6937 4.67171 20.9722 4.61264 21.2496 4.59296C21.6349 4.55921 21.904 4.80296 21.9434 5.19391C21.9528 5.28673 21.9584 5.37954 21.9584 5.47236V12.636L21.9603 12.6416Z" fill="#613A2E"/>
</svg>
