<svg width="80" height="80" viewBox="0 0 80 80" fill="none" xmlns="http://www.w3.org/2000/svg">
<path d="M24.4287 27.429C24.4287 25.7239 25.1061 24.0887 26.3117 22.883C27.5174 21.6773 29.1526 21 30.8577 21C32.5628 21 34.198 21.6773 35.4037 22.883C36.6094 24.0887 37.2867 25.7239 37.2867 27.429C37.2867 29.1341 36.6094 30.7693 35.4037 31.975C34.198 33.1807 32.5628 33.858 30.8577 33.858C29.1526 33.858 27.5174 33.1807 26.3117 31.975C25.1061 30.7693 24.4287 29.1341 24.4287 27.429V27.429Z" fill="#613A2E"/>
<path d="M46.2205 32.5208L46.3555 32.6236C47.7194 33.6346 49.4278 34.0651 51.1079 33.8211C52.788 33.5771 54.3034 32.6784 55.3233 31.3212C56.3433 29.964 56.785 28.2585 56.5521 26.5768C56.3192 24.8952 55.4306 23.3739 54.0802 22.345C52.7297 21.3161 51.0272 20.8631 49.344 21.0849C47.6608 21.3067 46.1337 22.1853 45.0959 23.5289C44.0581 24.8725 43.5939 26.5721 43.8046 28.2567C44.0153 29.9413 44.8838 31.4741 46.2205 32.5208V32.5208Z" fill="#613A2E"/>
<path d="M34.9345 37.0728C35.3382 36.3082 35.892 35.633 36.5628 35.0875C37.2335 34.5419 38.0074 34.1373 38.8381 33.8977C39.6689 33.6581 40.5394 33.5886 41.3976 33.6933C42.2559 33.7979 43.0842 34.0746 43.833 34.5068C44.5818 34.9389 45.2358 35.5177 45.7558 36.2085C46.2758 36.8992 46.6511 37.6877 46.8593 38.5269C47.0675 39.366 47.1043 40.2385 46.9675 41.0922C46.8307 41.9459 46.5231 42.7633 46.0631 43.4953C45.1782 44.9037 43.7819 45.9143 42.1676 46.3148C40.5532 46.7153 38.8465 46.4746 37.4059 45.6432C35.9653 44.8118 34.903 43.4545 34.4421 41.8563C33.9813 40.2581 34.1578 38.5436 34.9345 37.0728V37.0728Z" fill="#613A2E"/>
<path d="M22.8218 37.0723H31.4045C31.0509 38.0784 30.858 39.1617 30.858 40.2868C30.858 42.7555 31.787 45.0121 33.3139 46.7158H32.4653C30.808 46.7155 29.1911 47.2275 27.836 48.1815C26.4809 49.1356 25.4537 50.4851 24.8951 52.0454C23.8161 51.612 22.8058 51.024 21.896 50.2999C19.4787 48.3552 18 45.4814 18 41.894C18 40.6152 18.508 39.3888 19.4123 38.4845C20.3165 37.5803 21.5429 37.0723 22.8218 37.0723V37.0723Z" fill="#613A2E"/>
<path d="M48.5381 46.7158C52.0258 46.7158 54.996 48.937 56.105 52.0454C57.1979 51.5986 58.2105 51.0168 59.1074 50.2999C61.5247 48.3552 63.0033 45.4814 63.0033 41.894C63.0033 40.6152 62.4953 39.3888 61.5911 38.4845C60.6868 37.5803 59.4604 37.0723 58.1816 37.0723H49.5989C49.9525 38.0784 50.1453 39.1617 50.1453 40.2868C50.1483 42.6594 49.2736 44.9494 47.6895 46.7158H48.5381Z" fill="#613A2E"/>
<path d="M52.9963 52.9137C53.231 53.4795 53.3596 54.1031 53.3596 54.7524C53.3596 58.3398 51.8841 61.2136 49.4636 63.1584C47.0817 65.071 43.8864 66.0032 40.5016 66.0032C37.1167 66.0032 33.9215 65.071 31.5395 63.1584C29.1222 61.2136 27.6436 58.3398 27.6436 54.7524C27.6419 54.1188 27.7654 53.491 28.0072 52.9052C28.2489 52.3195 28.604 51.7872 29.052 51.3392C29.5001 50.8911 30.0323 50.536 30.6181 50.2943C31.2039 50.0525 31.8316 49.929 32.4653 49.9307H48.5378C49.4929 49.9305 50.4265 50.2139 51.2202 50.7449C52.014 51.276 52.6322 52.0309 52.9963 52.9137Z" fill="#613A2E"/>
<circle cx="68.5" cy="15.5" r="5.5" fill="#4CF772"/>
</svg>
