<svg width="37" height="47" viewBox="0 0 37 47" fill="none" xmlns="http://www.w3.org/2000/svg">
<path d="M0 23.5C0 24.1233 0.243638 24.721 0.677316 25.1617C1.11099 25.6024 1.69919 25.85 2.3125 25.85H19.8644L14.5456 31.2315C14.3289 31.45 14.1568 31.7099 14.0394 31.9962C13.922 32.2826 13.8616 32.5898 13.8616 32.9C13.8616 33.2102 13.922 33.5174 14.0394 33.8038C14.1568 34.0901 14.3289 34.35 14.5456 34.5685C14.7606 34.7888 15.0164 34.9636 15.2982 35.0829C15.58 35.2022 15.8822 35.2636 16.1875 35.2636C16.4928 35.2636 16.795 35.2022 17.0768 35.0829C17.3586 34.9636 17.6144 34.7888 17.8294 34.5685L27.0794 25.1685C27.2899 24.945 27.4549 24.6815 27.565 24.393C27.7963 23.8209 27.7963 23.1791 27.565 22.607C27.4549 22.3185 27.2899 22.055 27.0794 21.8315L17.8294 12.4315C17.6138 12.2124 17.3578 12.0386 17.0761 11.92C16.7944 11.8014 16.4924 11.7404 16.1875 11.7404C15.8826 11.7404 15.5806 11.8014 15.2989 11.92C15.0172 12.0386 14.7612 12.2124 14.5456 12.4315C14.33 12.6506 14.159 12.9107 14.0423 13.197C13.9256 13.4833 13.8655 13.7901 13.8655 14.1C13.8655 14.4099 13.9256 14.7167 14.0423 15.003C14.159 15.2893 14.33 15.5494 14.5456 15.7685L19.8644 21.15H2.3125C1.69919 21.15 1.11099 21.3976 0.677316 21.8383C0.243638 22.279 0 22.8767 0 23.5ZM30.0625 0H6.9375C5.09756 0 3.33298 0.742766 2.03195 2.0649C0.730913 3.38703 0 5.18022 0 7.05V14.1C0 14.7233 0.243638 15.321 0.677316 15.7617C1.11099 16.2024 1.69919 16.45 2.3125 16.45C2.92581 16.45 3.51401 16.2024 3.94768 15.7617C4.38136 15.321 4.625 14.7233 4.625 14.1V7.05C4.625 6.42674 4.86864 5.82901 5.30232 5.3883C5.73599 4.94759 6.32419 4.7 6.9375 4.7H30.0625C30.6758 4.7 31.264 4.94759 31.6977 5.3883C32.1314 5.82901 32.375 6.42674 32.375 7.05V39.95C32.375 40.5733 32.1314 41.171 31.6977 41.6117C31.264 42.0524 30.6758 42.3 30.0625 42.3H6.9375C6.32419 42.3 5.73599 42.0524 5.30232 41.6117C4.86864 41.171 4.625 40.5733 4.625 39.95V32.9C4.625 32.2767 4.38136 31.679 3.94768 31.2383C3.51401 30.7976 2.92581 30.55 2.3125 30.55C1.69919 30.55 1.11099 30.7976 0.677316 31.2383C0.243638 31.679 0 32.2767 0 32.9V39.95C0 41.8198 0.730913 43.613 2.03195 44.9351C3.33298 46.2572 5.09756 47 6.9375 47H30.0625C31.9024 47 33.667 46.2572 34.9681 44.9351C36.2691 43.613 37 41.8198 37 39.95V7.05C37 5.18022 36.2691 3.38703 34.9681 2.0649C33.667 0.742766 31.9024 0 30.0625 0Z" fill="#613A2E"/>
</svg>
