<svg width="80" height="80" viewBox="0 0 80 80" fill="none" xmlns="http://www.w3.org/2000/svg">
<path d="M41.9255 18C42.5869 18 43.1787 18.4117 43.4014 19.0282L44.9899 23.4314C45.5591 23.5732 46.0473 23.7149 46.4613 23.8634C46.9135 24.0254 47.4963 24.2707 48.2162 24.6059L51.9151 22.6484C52.217 22.4885 52.5627 22.4308 52.9002 22.4839C53.2377 22.537 53.5489 22.6982 53.7871 22.9432L57.0404 26.3069C57.4724 26.7546 57.5939 27.4094 57.3509 27.9809L55.6162 32.0466C55.9042 32.5753 56.1337 33.0276 56.3092 33.4056C56.4982 33.8173 56.7322 34.3843 57.0112 35.1155L61.0543 36.848C61.6618 37.1068 62.0375 37.7143 61.997 38.3645L61.7 43.0332C61.6797 43.3365 61.5708 43.6272 61.3869 43.8692C61.2029 44.1111 60.9519 44.2938 60.6651 44.3944L56.8357 45.7557C56.7255 46.2844 56.6107 46.7367 56.4892 47.1192C56.2932 47.7099 56.0695 48.291 55.8187 48.8606L57.7424 53.1131C57.8782 53.4119 57.9147 53.7463 57.8467 54.0673C57.7787 54.3884 57.6097 54.6792 57.3644 54.8973L53.7061 58.1643C53.4651 58.3785 53.1645 58.514 52.8444 58.5526C52.5243 58.5912 52.2001 58.5311 51.9151 58.3803L48.1443 56.3823C47.5543 56.6947 46.9457 56.9704 46.3218 57.208L44.6749 57.8245L43.2124 61.8745C43.1041 62.1711 42.9086 62.428 42.6516 62.6115C42.3946 62.795 42.0882 62.8965 41.7725 62.9027L37.4976 62.9995C37.1735 63.008 36.8548 62.9158 36.5852 62.7357C36.3157 62.5556 36.1086 62.2964 35.9924 61.9937L34.269 57.433C33.681 57.2321 33.0987 57.0145 32.523 56.7805C32.0522 56.5767 31.5884 56.3569 31.1326 56.1213L26.8577 57.9483C26.5761 58.0684 26.2655 58.1041 25.9639 58.051C25.6623 57.9979 25.3827 57.8582 25.159 57.649L21.9957 54.6813C21.7601 54.4613 21.5997 54.1728 21.5372 53.8567C21.4746 53.5405 21.513 53.2127 21.6469 52.9196L23.4851 48.9146C23.2406 48.4403 23.014 47.9569 22.8056 47.4656C22.5624 46.8643 22.3373 46.2558 22.1306 45.6409L18.1033 44.4147C17.7759 44.3157 17.4904 44.1115 17.291 43.8336C17.0917 43.5557 16.9897 43.2198 17.0008 42.878L17.1583 38.5558C17.1695 38.2737 17.2576 38.0002 17.4131 37.7646C17.5685 37.5291 17.7854 37.3405 18.0403 37.2193L22.2656 35.1898C22.4614 34.4721 22.6324 33.9141 22.7831 33.5068C22.9954 32.9629 23.2311 32.4284 23.4896 31.9048L21.6582 28.0349C21.5192 27.741 21.477 27.4106 21.5376 27.0912C21.5983 26.7718 21.7586 26.4799 21.9957 26.2574L25.1545 23.2739C25.376 23.0651 25.6531 22.9247 25.9524 22.8696C26.2518 22.8145 26.5607 22.8471 26.842 22.9634L31.1123 24.7274C31.5848 24.4124 32.0123 24.1582 32.3993 23.9534C32.8605 23.7082 33.477 23.4517 34.2532 23.1749L35.7382 19.0327C35.848 18.7296 36.0486 18.4677 36.3128 18.2829C36.577 18.0981 36.8917 17.9993 37.2141 18H41.9255ZM39.554 33.7926C35.8034 33.7926 32.7638 36.7963 32.7638 40.5042C32.7638 44.2122 35.8034 47.2182 39.554 47.2182C43.3024 47.2182 46.3421 44.2122 46.3421 40.5042C46.3421 36.7963 43.3047 33.7926 39.554 33.7926Z" fill="#613A2E"/>
</svg>
